<?xml version="1.0" standalone="no"?>
<!DOCTYPE svg PUBLIC "-//W3C//DTD SVG 20010904//EN"
 "http://www.w3.org/TR/2001/REC-SVG-20010904/DTD/svg10.dtd">
<svg version="1.0" xmlns="http://www.w3.org/2000/svg"
 width="600.000000pt" height="600.000000pt" viewBox="0 0 600.000000 600.000000"
 preserveAspectRatio="xMidYMid meet">
<metadata>
Created by potrace 1.11, written by Peter Selinger 2001-2013
</metadata>
<g transform="translate(0.000000,600.000000) scale(0.100000,-0.100000)"
fill="#000000" stroke="none">
<path d="M2797 5462 c-31 -2 -45 -7 -41 -14 5 -7 2 -8 -7 -2 -18 11 -39 14
-39 6 0 -4 -22 -6 -50 -6 -31 1 -50 -3 -50 -10 0 -6 -5 -4 -10 4 -5 8 -10 10
-10 4 0 -6 -6 -11 -12 -11 -12 0 -52 -6 -122 -19 -16 -3 -33 -7 -36 -9 -4 -3
-25 -7 -46 -11 -20 -3 -47 -10 -60 -14 -12 -5 -25 -6 -28 -3 -3 4 -6 1 -6 -6
0 -7 -4 -10 -8 -7 -4 2 -41 -6 -81 -19 -41 -14 -78 -22 -82 -19 -5 3 -9 0 -9
-5 0 -6 -7 -11 -15 -11 -8 0 -15 -4 -15 -10 0 -6 -3 -9 -7 -8 -18 4 -73 -14
-73 -24 0 -6 -3 -9 -6 -5 -4 3 -19 0 -35 -9 -16 -8 -31 -13 -33 -12 -2 2 -13
-6 -25 -16 -12 -11 -21 -16 -21 -12 0 4 -20 -5 -45 -19 -25 -14 -52 -25 -60
-25 -8 0 -15 -4 -15 -10 0 -5 -4 -10 -9 -10 -5 0 -33 -16 -62 -35 -30 -19 -59
-35 -66 -35 -7 0 -13 -4 -13 -10 0 -5 -5 -10 -10 -10 -14 0 -72 -41 -83 -58
-5 -7 -12 -10 -18 -7 -5 4 -9 2 -9 -2 0 -5 -20 -22 -45 -37 -25 -16 -45 -33
-45 -37 0 -5 -7 -9 -15 -9 -9 0 -18 -7 -21 -15 -3 -8 -14 -17 -25 -20 -11 -4
-17 -11 -14 -16 4 -5 1 -9 -6 -9 -7 0 -30 -17 -52 -37 -113 -108 -277 -279
-277 -290 0 -3 -11 -16 -24 -28 -13 -12 -27 -32 -31 -44 -3 -12 -11 -19 -16
-16 -5 4 -9 1 -9 -5 0 -7 -16 -32 -36 -56 -20 -24 -32 -44 -28 -44 5 0 1 -5
-9 -11 -9 -6 -15 -14 -12 -20 4 -5 1 -9 -4 -9 -6 0 -17 -15 -26 -32 -17 -37
-34 -66 -53 -86 -7 -7 -10 -18 -6 -23 3 -5 -2 -12 -10 -15 -9 -3 -16 -12 -16
-20 0 -8 -5 -14 -12 -14 -6 0 -9 -3 -5 -6 3 -4 -7 -31 -24 -62 -16 -30 -29
-61 -29 -68 0 -8 -4 -14 -9 -14 -8 0 -21 -34 -20 -54 1 -5 -4 -12 -10 -16 -6
-3 -13 -16 -15 -27 -3 -11 -9 -29 -14 -39 -24 -47 -47 -119 -44 -136 1 -5 -2
-8 -8 -8 -6 0 -9 -3 -9 -7 1 -5 0 -10 -1 -13 -1 -3 -3 -13 -5 -23 -2 -10 -7
-26 -11 -35 -6 -16 -8 -26 -19 -87 -2 -11 -4 -21 -5 -22 -2 -2 -4 -7 -5 -13
-1 -5 -4 -12 -5 -15 -1 -3 -3 -13 -4 -22 -1 -10 -5 -24 -9 -31 -5 -7 -5 -21
-2 -32 4 -11 2 -20 -2 -20 -8 0 -14 -36 -17 -97 -1 -13 -3 -23 -6 -23 -6 0 -8
-25 -12 -132 -2 -43 -5 -78 -8 -78 -3 0 -5 -61 -5 -135 0 -74 2 -135 5 -135 3
0 4 -22 3 -50 -2 -31 2 -50 9 -50 7 0 7 -4 -1 -14 -9 -11 -9 -15 1 -19 11 -4
10 -6 0 -6 -8 -1 -10 -6 -5 -13 4 -7 8 -22 9 -33 2 -38 14 -120 23 -155 4 -20
7 -43 5 -53 -1 -9 1 -17 5 -17 4 0 8 -14 9 -31 1 -17 9 -44 18 -61 9 -17 11
-27 5 -24 -10 7 -6 -15 8 -39 6 -11 12 -33 13 -52 1 -7 4 -13 8 -13 3 0 7 -9
8 -20 1 -11 3 -29 4 -40 1 -11 6 -20 10 -20 4 0 8 -7 8 -15 0 -8 4 -23 9 -33
9 -16 21 -47 26 -64 2 -5 4 -11 5 -15 1 -5 2 -11 1 -15 0 -5 4 -8 9 -8 6 0 10
-9 10 -20 0 -11 5 -20 11 -20 5 0 7 -5 4 -10 -3 -6 -1 -10 4 -10 6 0 10 -3 9
-7 -1 -5 14 -42 35 -85 20 -42 38 -82 39 -90 2 -7 11 -20 20 -29 10 -9 15 -19
11 -23 -3 -3 -1 -6 5 -6 7 0 12 -7 12 -15 0 -8 5 -15 11 -15 5 0 7 -5 4 -10
-3 -6 1 -13 9 -16 9 -3 14 -10 11 -14 -3 -5 -1 -11 5 -15 6 -3 19 -23 29 -43
11 -20 29 -47 41 -59 11 -13 17 -23 13 -23 -4 0 0 -5 9 -11 10 -5 18 -16 18
-24 0 -7 3 -15 8 -17 4 -1 23 -23 42 -48 19 -25 43 -54 52 -64 10 -11 18 -24
18 -28 0 -5 3 -7 8 -5 4 3 13 -1 20 -9 7 -8 10 -14 6 -14 -4 0 10 -15 30 -34
20 -19 36 -38 36 -41 0 -7 26 -35 33 -35 3 0 37 -31 77 -70 40 -38 75 -70 79
-70 3 0 13 -9 21 -20 8 -11 18 -20 23 -20 5 0 15 -6 22 -13 8 -6 26 -21 41
-32 14 -11 34 -28 42 -38 9 -9 22 -17 30 -17 8 0 10 -5 6 -12 -4 -7 -4 -10 0
-6 7 6 63 -27 121 -69 6 -5 32 -19 58 -33 26 -13 47 -28 47 -32 0 -5 9 -8 20
-8 11 0 20 -4 20 -10 0 -5 7 -10 15 -10 8 0 15 -5 15 -11 0 -5 5 -7 10 -4 6 3
22 -3 38 -13 15 -11 29 -20 32 -21 3 -1 15 -4 28 -7 12 -4 22 -10 22 -15 0 -5
9 -9 19 -9 11 0 22 -4 26 -10 3 -5 13 -6 22 -3 11 4 14 3 9 -5 -4 -7 -1 -12 8
-12 9 0 16 -6 16 -12 0 -9 4 -8 10 2 7 11 10 11 10 2 0 -7 4 -10 10 -7 5 3 10
1 10 -4 0 -6 3 -10 8 -10 14 3 72 -14 78 -22 2 -4 11 -6 19 -2 8 3 15 0 15 -6
0 -6 11 -11 24 -11 14 0 28 -5 32 -11 3 -6 15 -9 25 -6 11 3 19 1 19 -4 0 -5
3 -8 8 -7 4 1 19 -2 33 -6 14 -4 34 -9 45 -11 10 -2 20 -4 22 -5 1 -2 11 -4
22 -5 11 -1 22 -4 25 -5 8 -4 18 -6 65 -14 70 -11 85 -14 85 -16 0 -2 16 -4
35 -5 19 -2 64 -6 100 -10 36 -3 93 -8 127 -10 34 -1 66 -6 72 -9 5 -4 12 -2
15 2 3 5 26 6 51 2 24 -4 47 -5 50 -2 2 3 35 6 72 7 60 2 200 13 235 19 7 1
19 5 26 9 7 5 12 3 12 -3 0 -7 6 -8 19 0 11 5 33 10 50 10 17 0 31 4 31 9 0 5
16 8 35 7 19 -2 32 0 30 4 -3 4 5 8 18 8 30 2 50 6 65 15 6 5 12 5 12 1 0 -3
6 -1 14 5 7 6 21 9 30 5 9 -4 16 -1 16 6 0 7 7 10 15 7 8 -4 17 -2 20 4 4 5
10 7 15 4 5 -3 11 -1 15 5 4 6 10 8 15 5 5 -3 11 -1 15 5 4 6 11 8 16 5 5 -4
9 -1 9 6 0 7 3 10 6 7 3 -4 21 0 40 8 19 8 34 11 34 7 0 -5 4 -3 8 2 10 14 59
35 82 35 10 0 20 4 22 8 4 10 120 66 131 64 4 -1 7 3 7 9 0 5 5 7 10 4 6 -3
10 -1 10 4 0 6 3 11 8 10 15 -2 52 14 52 22 0 5 6 9 14 9 7 0 19 7 26 15 7 9
15 13 17 11 3 -3 14 4 26 15 11 10 27 19 34 19 7 0 13 5 13 11 0 5 4 8 9 4 6
-3 14 2 19 11 5 9 12 15 16 14 9 -3 78 45 113 78 13 12 27 22 31 22 11 0 125
98 230 198 36 34 69 62 74 62 4 0 8 5 8 11 0 7 8 19 18 28 9 9 29 30 42 46 14
17 30 32 35 33 6 1 10 7 10 13 0 6 7 16 15 22 9 7 30 34 48 61 17 27 32 46 32
41 0 -5 6 0 14 10 8 11 12 23 10 27 -3 4 5 12 16 18 11 6 18 15 15 21 -4 5 -1
9 5 9 6 0 16 12 23 27 6 16 14 30 17 33 12 11 44 65 43 72 -2 3 4 12 12 18 8
7 15 19 15 26 0 8 4 14 8 14 5 0 14 16 22 35 8 19 18 35 24 35 5 0 7 3 3 6 -3
3 9 36 28 73 44 88 79 167 95 216 7 22 17 46 23 53 5 6 6 12 3 12 -4 0 -1 10
6 23 7 12 13 30 14 40 1 9 3 19 4 22 1 3 4 10 5 15 1 6 3 11 4 13 2 1 5 13 7
27 2 13 8 27 12 30 4 3 8 16 9 30 4 41 10 74 16 90 9 24 21 93 21 118 0 12 3
22 6 22 3 0 6 10 7 23 0 19 8 95 19 192 2 17 5 45 7 63 2 17 -1 32 -6 32 -5 0
-4 7 3 15 10 12 10 15 0 15 -10 0 -10 3 -1 14 8 10 9 16 1 21 -6 3 -8 11 -5
16 11 16 12 89 2 89 -5 0 -5 5 2 13 8 10 7 17 -1 25 -9 9 -9 12 1 12 7 0 9 5
5 12 -4 7 -9 37 -10 68 -1 30 -5 73 -8 95 -12 74 -18 120 -20 150 -1 17 -4 35
-7 40 -4 6 -9 26 -13 45 -3 19 -9 46 -12 60 -3 14 -6 32 -6 40 0 8 -4 20 -9
25 -4 6 -10 23 -13 38 -3 15 -8 38 -11 51 -3 13 -12 39 -20 58 -8 20 -11 38
-8 42 4 3 1 6 -6 6 -8 0 -11 8 -8 20 3 11 2 18 -2 15 -4 -2 -16 21 -25 52 -10
31 -26 71 -37 90 -10 18 -19 40 -19 48 0 8 -5 15 -11 15 -5 0 -8 4 -5 9 4 5 2
11 -4 13 -6 2 -12 14 -15 28 -3 14 -9 26 -15 28 -5 2 -10 9 -10 16 0 7 -22 50
-50 96 -27 46 -50 87 -50 92 0 4 -4 8 -10 8 -5 0 -10 7 -10 15 0 8 -5 15 -12
15 -6 0 -9 3 -5 6 3 4 1 12 -6 20 -27 30 -37 43 -37 49 0 6 -12 21 -40 53 -9
9 -27 34 -40 54 -14 21 -28 38 -32 38 -5 0 -8 4 -8 10 0 5 -13 23 -30 38 -16
16 -30 35 -30 42 0 7 -3 11 -6 7 -6 -6 -44 28 -44 40 0 8 -119 122 -156 150
-12 9 -20 21 -17 26 3 6 1 7 -4 4 -6 -4 -19 5 -29 18 -10 14 -23 25 -29 25 -6
0 -17 9 -25 20 -8 11 -20 20 -26 20 -7 0 -14 3 -16 8 -1 4 -32 28 -68 54 -36
26 -69 51 -75 56 -5 4 -26 17 -45 28 -19 10 -41 25 -48 32 -8 7 -17 10 -22 7
-4 -3 -11 2 -14 11 -3 8 -10 13 -15 10 -5 -4 -11 -3 -13 2 -5 12 -77 52 -94
52 -8 0 -14 3 -14 8 0 8 -49 32 -67 32 -7 0 -13 5 -13 11 0 5 -4 7 -10 4 -5
-3 -10 -2 -10 3 0 9 -47 27 -62 24 -5 -1 -8 3 -8 8 0 6 -9 10 -19 10 -11 0
-23 5 -26 10 -3 6 -15 10 -26 10 -10 0 -19 5 -19 10 0 6 -6 10 -12 9 -7 -1
-26 3 -43 10 -16 7 -38 13 -47 14 -10 1 -18 5 -18 9 0 4 -10 8 -23 8 -13 0
-28 5 -35 12 -7 7 -12 8 -12 4 0 -5 -7 -3 -15 4 -12 10 -15 10 -15 -1 0 -11
-2 -11 -10 1 -5 8 -10 11 -10 7 0 -4 -9 -3 -19 3 -11 5 -31 11 -45 12 -15 1
-26 5 -26 8 0 3 -10 7 -22 7 -27 2 -63 8 -98 17 -30 7 -92 16 -141 20 -20 2
-41 6 -47 10 -7 4 -12 2 -12 -6 0 -8 -3 -9 -8 -3 -4 6 -27 11 -52 12 -197 9
-236 9 -249 -1 -10 -7 -13 -7 -8 0 6 11 -28 12 -126 6z m71 -537 c23 0 42 2
42 5 0 3 51 5 113 3 61 -1 112 -3 112 -4 0 0 18 -3 40 -5 22 -1 54 -6 70 -9
17 -3 46 -7 65 -10 91 -12 200 -36 200 -45 0 -3 12 -6 28 -5 15 0 30 -4 34 -9
6 -9 25 -14 71 -18 9 -1 17 -6 17 -10 0 -4 9 -8 19 -8 11 0 23 -5 26 -11 4 -6
14 -8 22 -5 9 4 11 2 7 -6 -5 -7 0 -9 14 -6 12 4 20 2 16 -3 -3 -5 0 -9 7 -9
18 0 102 -41 111 -54 4 -6 8 -7 8 -3 0 9 134 -61 158 -84 9 -8 20 -15 24 -15
4 1 16 -7 28 -16 11 -10 20 -15 20 -12 0 3 15 -7 33 -22 19 -16 44 -36 56 -44
38 -26 62 -44 86 -67 13 -13 26 -23 28 -23 2 0 29 -24 60 -54 31 -29 59 -51
62 -48 3 3 5 1 5 -4 0 -5 12 -23 28 -40 15 -17 33 -41 41 -52 8 -12 18 -19 23
-16 4 3 8 -1 8 -8 0 -8 9 -20 20 -28 11 -8 20 -20 20 -27 0 -7 5 -13 10 -13 6
0 10 -6 10 -14 0 -8 3 -16 8 -18 17 -7 108 -138 96 -138 -4 0 3 -9 16 -20 13
-11 21 -23 18 -26 -3 -3 5 -17 18 -31 13 -14 21 -29 18 -34 -3 -5 0 -9 6 -9 6
0 8 -4 5 -10 -3 -5 -1 -10 4 -10 6 0 10 -3 9 -7 -1 -5 6 -23 15 -40 10 -18 15
-33 12 -33 -4 0 1 -7 9 -16 9 -8 14 -20 10 -25 -3 -5 1 -12 10 -15 8 -3 13
-14 11 -25 -2 -10 0 -19 6 -19 5 0 9 -9 9 -19 0 -11 4 -22 10 -26 5 -3 7 -12
3 -20 -3 -8 0 -15 7 -15 7 0 10 -7 6 -15 -3 -8 -2 -15 3 -15 5 0 11 -10 14
-22 12 -51 39 -154 44 -168 7 -19 12 -45 17 -97 2 -23 7 -46 10 -52 4 -6 4
-15 1 -21 -3 -5 -2 -10 3 -10 5 0 8 -18 8 -40 -1 -22 1 -40 4 -40 4 0 6 -24 7
-52 0 -29 1 -83 3 -119 2 -36 0 -71 -4 -77 -3 -6 -2 -13 4 -17 6 -4 8 -10 5
-15 -5 -8 -16 -136 -19 -212 -1 -16 -3 -28 -6 -28 -4 0 -7 -10 -8 -22 -4 -67
-7 -88 -14 -88 -3 0 -5 -8 -3 -17 1 -10 0 -22 -4 -28 -3 -5 -6 -16 -7 -23 -2
-8 -6 -21 -10 -30 -4 -9 -6 -25 -5 -35 1 -9 -1 -17 -6 -17 -4 0 -9 -10 -10
-23 0 -12 -7 -35 -14 -52 -7 -16 -13 -32 -14 -35 -6 -27 -29 -87 -36 -96 -5
-6 -6 -14 -2 -18 4 -4 3 -10 -2 -14 -11 -7 -39 -66 -33 -68 1 -1 -6 -11 -16
-23 -11 -12 -15 -21 -10 -21 5 0 5 -4 -1 -8 -5 -4 -20 -27 -32 -52 -23 -46
-54 -101 -63 -110 -3 -3 -14 -21 -24 -40 -11 -19 -26 -41 -34 -49 -7 -8 -21
-26 -30 -40 -28 -43 -94 -123 -144 -173 -16 -15 -28 -30 -28 -32 0 -13 -185
-180 -193 -175 -3 2 -16 -8 -29 -22 -13 -14 -38 -34 -55 -45 -18 -10 -33 -22
-33 -26 0 -5 -11 -13 -25 -18 -14 -5 -25 -14 -25 -20 0 -5 -3 -9 -7 -8 -7 3
-82 -39 -93 -51 -3 -4 -12 -7 -20 -9 -8 -2 -16 -8 -18 -13 -2 -5 -12 -9 -23
-9 -10 0 -19 -4 -19 -10 0 -5 -3 -9 -7 -8 -8 2 -143 -62 -153 -72 -3 -3 -16
-6 -29 -8 -14 -1 -33 -10 -43 -19 -11 -9 -18 -11 -18 -5 0 7 -13 4 -35 -8 -19
-10 -45 -21 -57 -23 -13 -2 -30 -6 -38 -9 -24 -8 -113 -30 -135 -33 -11 -1
-20 -3 -20 -4 0 -9 -166 -32 -255 -35 -31 -1 -61 -5 -67 -9 -6 -4 -13 -2 -15
5 -3 7 -9 8 -19 3 -20 -13 -38 -15 -44 -4 -3 4 -16 4 -30 -1 -17 -7 -25 -6
-25 1 0 8 -4 8 -13 0 -8 -6 -17 -8 -20 -4 -4 3 -37 8 -74 10 -75 4 -148 10
-148 13 0 1 -11 4 -25 6 -57 8 -87 13 -130 24 -59 14 -75 18 -75 20 0 1 -9 3
-20 5 -42 7 -125 35 -135 45 -3 3 -12 5 -20 5 -8 -1 -30 7 -47 18 -18 10 -33
15 -33 12 0 -4 -7 -2 -15 5 -8 7 -15 9 -15 4 0 -5 -7 0 -15 10 -8 11 -15 16
-15 12 0 -5 -7 -2 -17 5 -9 8 -19 13 -22 13 -7 -1 -73 28 -81 36 -3 3 -10 6
-16 7 -6 1 -35 18 -65 37 -29 20 -60 36 -67 36 -7 0 -10 5 -7 10 3 6 -1 10 -9
10 -8 0 -21 6 -28 13 -7 7 -33 27 -58 44 -25 17 -55 41 -67 52 -12 12 -25 21
-27 21 -3 0 -29 21 -58 48 -69 63 -158 152 -151 152 3 0 -12 18 -33 40 -64 65
-85 90 -77 90 4 0 3 4 -2 8 -19 13 -77 92 -68 92 4 0 0 5 -10 11 -9 5 -17 17
-17 24 0 8 -4 15 -10 15 -5 0 -10 5 -10 10 0 6 -11 27 -24 48 -12 20 -24 42
-25 47 -1 6 -9 13 -16 18 -8 4 -17 23 -21 42 -3 20 -11 38 -16 41 -10 7 -32
55 -30 67 1 4 -3 7 -10 7 -6 0 -8 3 -5 7 4 3 3 11 -2 17 -8 10 -35 83 -36 98
0 3 -3 10 -7 14 -5 4 -8 16 -8 26 0 10 -5 18 -10 18 -6 0 -9 3 -8 7 1 5 -4 28
-12 53 -7 25 -13 53 -12 63 0 9 -3 17 -8 17 -4 0 -7 8 -5 18 1 9 0 22 -4 27
-3 6 -7 17 -9 25 -9 44 -15 89 -16 117 0 17 -4 29 -9 26 -6 -3 -8 8 -5 26 2
17 2 31 -1 31 -3 0 -5 19 -4 42 0 24 -4 46 -10 50 -9 6 -8 8 1 8 9 0 10 6 4
18 -4 9 -6 62 -5 117 3 103 4 116 2 138 0 6 2 28 5 48 3 19 6 50 8 67 1 18 7
32 13 32 5 0 3 5 -5 10 -11 7 -11 10 -2 10 7 0 11 3 9 8 -7 10 10 109 31 185
6 20 7 38 4 41 -3 3 0 6 5 6 6 0 10 11 8 25 -1 15 4 29 14 35 13 8 14 9 1 10
-12 0 -12 2 -2 9 8 4 13 11 12 15 -1 4 4 21 11 39 6 18 11 35 10 40 0 4 4 7
10 7 5 0 8 4 4 9 -3 5 0 13 6 16 5 4 8 13 5 21 -3 7 1 19 8 26 7 7 11 19 8 26
-2 6 1 12 7 12 6 0 16 18 22 40 7 22 16 40 21 40 4 0 7 3 6 8 -1 4 3 17 10 30
7 12 10 22 7 22 -3 0 3 9 14 21 11 12 25 34 31 50 7 16 16 29 21 29 5 0 9 9 9
20 0 11 5 20 10 20 6 0 10 5 10 10 0 11 10 24 43 61 9 10 17 24 17 29 0 6 5
10 10 10 6 0 10 5 10 11 0 6 6 16 13 24 6 7 23 27 37 45 14 17 42 49 63 71 20
21 37 44 37 51 0 6 3 9 6 6 7 -8 42 25 37 35 -2 4 0 7 5 7 9 0 17 6 103 85 24
22 48 41 52 42 8 3 27 17 58 46 10 9 19 14 19 10 0 -5 5 0 11 10 5 9 16 17 23
17 8 0 16 7 20 15 3 8 12 15 21 15 8 0 15 5 15 10 0 6 8 10 18 10 10 0 25 9
35 20 10 12 22 18 27 15 6 -3 10 -2 10 4 0 12 176 102 184 93 3 -3 6 -1 6 4 0
10 69 40 83 36 4 -1 7 2 7 7 0 9 57 27 73 23 4 -1 7 3 7 10 0 6 3 8 7 5 3 -4
12 -2 19 4 8 6 20 9 28 6 8 -3 16 -2 18 3 2 5 16 11 31 14 15 3 54 12 85 22
31 9 71 17 88 18 16 2 34 5 40 8 9 6 109 19 167 22 15 0 27 5 27 11 0 7 3 7 8
0 4 -5 26 -10 50 -10z"/>
<path d="M2210 3698 c-78 -17 -114 -26 -117 -28 -2 -2 -8 -3 -13 -4 -6 0 -15
-8 -20 -16 -5 -8 -10 -11 -10 -7 0 10 -92 -43 -107 -63 -7 -8 -13 -12 -13 -7
0 4 -17 -12 -37 -35 -21 -23 -37 -45 -35 -50 1 -4 -2 -8 -8 -8 -5 0 -10 -7
-10 -15 0 -8 -4 -15 -10 -15 -5 0 -10 -6 -10 -12 0 -7 -6 -25 -14 -39 -11 -22
-11 -29 0 -44 8 -10 14 -16 14 -13 0 3 35 -29 78 -71 131 -128 115 -122 151
-48 57 117 122 167 226 174 71 5 139 -12 169 -42 15 -15 24 -31 21 -36 -4 -5
-2 -9 3 -9 15 0 7 -100 -7 -110 -11 -6 -11 -9 0 -13 10 -4 9 -6 -3 -6 -10 -1
-18 -8 -18 -16 0 -8 -3 -15 -7 -14 -14 2 -53 -13 -53 -21 0 -4 -13 -6 -30 -5
-16 1 -30 -2 -30 -7 0 -5 -9 -4 -20 2 -12 7 -20 7 -20 1 0 -9 -7 -9 -45 -1 -5
1 -14 1 -20 0 -5 -1 -26 -3 -45 -4 l-35 -1 -5 -118 c-3 -64 -1 -117 4 -117 5
0 4 -6 -1 -12 -5 -7 -7 -22 -4 -33 5 -18 15 -20 79 -20 39 0 72 4 72 8 0 5 5
5 11 1 6 -3 29 -8 52 -10 22 -2 47 -10 55 -17 8 -6 17 -10 20 -8 6 5 50 -36
68 -64 18 -27 25 -105 12 -129 -7 -13 -7 -16 1 -12 25 16 -5 -36 -44 -75 -42
-42 -198 -59 -275 -29 -3 1 -8 2 -11 2 -17 -3 -108 97 -120 131 -7 20 -17 37
-22 37 -4 0 -5 5 -2 10 3 6 1 10 -4 10 -6 0 -10 5 -8 11 1 6 -6 13 -15 14 -10
2 -18 -3 -18 -11 0 -8 -3 -14 -7 -14 -5 0 -31 -22 -59 -48 -28 -26 -66 -60
-85 -77 -61 -53 -62 -58 -37 -101 12 -22 25 -41 28 -44 3 -3 6 -10 7 -17 3
-16 100 -113 113 -113 5 0 10 -4 10 -10 0 -5 7 -10 15 -10 8 0 15 -4 15 -9 0
-5 10 -12 23 -16 12 -4 24 -8 27 -9 3 -1 14 -7 25 -12 18 -10 40 -17 95 -31
22 -5 121 -15 150 -15 41 0 171 17 178 22 1 2 5 3 10 4 4 1 13 5 19 9 7 5 21
10 31 12 26 5 122 65 122 76 0 5 3 8 8 7 4 -1 21 12 39 30 17 17 28 32 25 32
-4 0 0 6 8 13 29 24 87 167 72 181 -3 3 -1 6 4 6 6 0 9 33 8 78 -3 89 -9 131
-28 177 -8 19 -11 37 -8 41 4 4 2 5 -3 1 -6 -3 -16 7 -23 23 -7 16 -29 46 -48
66 -18 21 -34 40 -34 44 0 3 11 14 25 24 13 10 22 22 19 27 -3 5 -1 9 4 9 12
0 57 100 53 118 -1 6 2 12 7 12 5 0 8 12 7 28 -1 15 3 33 9 41 9 12 8 13 -2 7
-11 -7 -12 -4 -3 13 7 12 9 27 5 33 -4 7 -9 26 -10 42 -4 41 -10 65 -25 101
-7 17 -12 33 -11 38 1 4 -2 7 -6 7 -5 0 -14 12 -20 26 -13 27 -101 112 -109
104 -2 -3 -9 3 -14 13 -6 9 -14 15 -20 12 -5 -4 -9 -3 -9 2 0 16 -153 67 -164
56 -3 -4 -6 -2 -6 3 0 5 -9 10 -20 11 -11 1 -20 -3 -20 -8 0 -6 -6 -7 -12 -2
-17 10 -104 11 -148 1z"/>
<path d="M3089 3661 c-1 -3 -1 -9 0 -13 0 -5 -5 -8 -11 -8 -10 0 -9 -3 1 -9 9
-6 10 -10 2 -16 -9 -5 -9 -10 0 -21 6 -8 7 -14 2 -14 -11 0 -11 -29 1 -48 4
-7 2 -12 -4 -12 -6 0 -8 -5 -4 -12 11 -18 12 -48 2 -48 -5 0 -4 -9 2 -20 6
-11 7 -20 2 -20 -10 0 -9 -30 2 -48 4 -7 2 -12 -4 -12 -6 0 -8 -5 -4 -12 11
-18 12 -48 2 -48 -5 0 -4 -9 2 -20 6 -11 7 -20 2 -20 -12 0 -9 -43 3 -52 6 -5
5 -8 -3 -8 -8 0 -10 -5 -6 -12 11 -18 12 -48 2 -48 -5 0 -4 -9 2 -20 6 -11 7
-20 2 -20 -10 0 -9 -30 2 -48 4 -7 2 -12 -4 -12 -6 0 -8 -5 -4 -12 11 -18 12
-48 2 -48 -5 0 -4 -9 2 -20 6 -11 7 -20 2 -20 -12 0 -9 -43 3 -52 6 -5 5 -8
-3 -8 -8 0 -10 -5 -6 -12 10 -16 13 -48 4 -48 -4 0 -5 -12 -3 -27 7 -53 8 -93
2 -93 -8 0 -5 -32 5 -48 4 -7 2 -12 -4 -12 -6 0 -8 -5 -4 -12 10 -16 13 -48 4
-48 -8 0 -5 -49 3 -57 3 -2 1 -18 -3 -34 -6 -19 -5 -29 2 -29 7 0 6 -5 -1 -14
-8 -10 -9 -16 -1 -21 7 -4 7 -12 0 -26 -8 -14 -7 -19 1 -19 9 0 9 -3 0 -14 -8
-10 -9 -16 -1 -21 7 -4 7 -12 0 -24 -5 -10 -7 -21 -4 -24 8 -8 11 -77 3 -77
-8 0 -5 -32 5 -48 4 -7 2 -12 -4 -12 -7 0 -8 -5 -3 -12 4 -7 8 -17 8 -21 0
-10 303 -12 313 -3 3 4 6 144 6 314 l1 307 252 0 c147 0 249 4 246 9 -4 5 0 6
6 1 22 -13 115 -13 128 1 7 7 9 15 5 18 -5 3 -7 20 -5 38 7 74 8 98 3 98 -3 0
-4 31 -3 68 l3 69 -311 -1 c-171 -1 -314 1 -318 4 -13 8 -9 294 3 302 17 12
28 9 20 -4 -5 -7 -3 -8 5 -3 19 11 191 13 184 1 -3 -5 -1 -6 6 -2 19 12 111
13 111 1 0 -6 3 -7 8 0 4 6 82 10 199 10 125 0 189 -3 185 -10 -3 -5 2 -4 11
4 10 8 15 16 13 19 -3 2 -1 13 5 23 5 11 6 19 1 19 -9 0 -8 53 3 69 3 6 3 11
-2 11 -4 0 -8 11 -8 25 0 14 4 25 8 25 5 0 5 5 1 11 -10 17 -11 89 -2 89 5 0
3 6 -4 14 -14 14 -25 15 -45 3 -6 -4 -14 -4 -16 0 -7 10 -351 8 -367 -2 -9 -6
-11 -4 -5 6 7 11 6 12 -7 2 -8 -7 -18 -10 -21 -6 -10 9 -111 8 -127 -2 -9 -6
-11 -4 -5 6 7 12 6 12 -7 1 -9 -7 -18 -9 -21 -5 -6 10 -351 8 -367 -2 -9 -6
-11 -4 -5 6 7 11 6 12 -7 2 -8 -7 -18 -10 -22 -6 -8 9 -46 12 -47 4z"/>
</g>
</svg>
